<svg width="1223" height="912" viewBox="0 0 1223 912" fill="none" xmlns="http://www.w3.org/2000/svg">
<path d="M594.617 281L583.709 269.372V281H581.189V255.836H583.709V267.608L594.617 255.836H597.821L586.049 268.4L597.929 281H594.617ZM604.17 255.836V281H601.65V255.836H604.17ZM624.6 255.836V257.924H617.616V281H615.096V257.924H608.076V255.836H624.6ZM627.427 268.4C627.427 265.928 627.967 263.72 629.047 261.776C630.127 259.808 631.603 258.284 633.475 257.204C635.347 256.1 637.435 255.548 639.739 255.548C642.547 255.548 644.947 256.22 646.939 257.564C648.955 258.884 650.419 260.756 651.331 263.18H648.379C647.659 261.476 646.555 260.144 645.067 259.184C643.603 258.224 641.827 257.744 639.739 257.744C637.891 257.744 636.223 258.176 634.735 259.04C633.271 259.904 632.119 261.152 631.279 262.784C630.439 264.392 630.019 266.264 630.019 268.4C630.019 270.536 630.439 272.408 631.279 274.016C632.119 275.624 633.271 276.86 634.735 277.724C636.223 278.588 637.891 279.02 639.739 279.02C641.827 279.02 643.603 278.552 645.067 277.616C646.555 276.656 647.659 275.336 648.379 273.656H651.331C650.419 276.056 648.955 277.916 646.939 279.236C644.923 280.556 642.523 281.216 639.739 281.216C637.435 281.216 635.347 280.676 633.475 279.596C631.603 278.492 630.127 276.968 629.047 275.024C627.967 273.08 627.427 270.872 627.427 268.4ZM675.037 255.836V281H672.517V269.228H658.873V281H656.353V255.836H658.873V267.14H672.517V255.836H675.037ZM683.306 257.888V267.284H692.846V269.372H683.306V278.912H693.926V281H680.786V255.8H693.926V257.888H683.306ZM717.864 281H715.344L701.412 259.832V281H698.892V255.836H701.412L715.344 276.968V255.836H717.864V281Z" fill="black"/>
<path d="M943.987 406.252C942.331 406.252 940.867 405.964 939.595 405.388C938.347 404.812 937.363 404.008 936.643 402.976C935.923 401.944 935.539 400.792 935.491 399.52H938.155C938.275 400.744 938.815 401.824 939.775 402.76C940.735 403.672 942.139 404.128 943.987 404.128C945.691 404.128 947.035 403.696 948.019 402.832C949.027 401.944 949.531 400.828 949.531 399.484C949.531 398.404 949.255 397.54 948.703 396.892C948.151 396.22 947.467 395.728 946.651 395.416C945.835 395.08 944.707 394.72 943.267 394.336C941.587 393.88 940.255 393.436 939.271 393.004C938.287 392.572 937.447 391.9 936.751 390.988C936.055 390.076 935.707 388.84 935.707 387.28C935.707 385.984 936.043 384.832 936.715 383.824C937.387 382.792 938.335 381.988 939.559 381.412C940.783 380.836 942.187 380.548 943.771 380.548C946.099 380.548 947.971 381.124 949.387 382.276C950.827 383.404 951.655 384.868 951.871 386.668H949.135C948.967 385.636 948.403 384.724 947.443 383.932C946.483 383.116 945.187 382.708 943.555 382.708C942.043 382.708 940.783 383.116 939.775 383.932C938.767 384.724 938.263 385.816 938.263 387.208C938.263 388.264 938.539 389.116 939.091 389.764C939.643 390.412 940.327 390.904 941.143 391.24C941.983 391.576 943.111 391.936 944.527 392.32C946.159 392.776 947.479 393.232 948.487 393.688C949.495 394.12 950.347 394.792 951.043 395.704C951.739 396.616 952.087 397.84 952.087 399.376C952.087 400.552 951.775 401.668 951.151 402.724C950.527 403.78 949.603 404.632 948.379 405.28C947.155 405.928 945.691 406.252 943.987 406.252ZM971.536 400.024H960.088L957.892 406H955.228L964.408 381.16H967.252L976.396 406H973.732L971.536 400.024ZM970.78 397.936L965.812 384.328L960.844 397.936H970.78ZM982.853 380.836V396.676C982.853 399.172 983.441 401.02 984.617 402.22C985.817 403.42 987.449 404.02 989.513 404.02C991.577 404.02 993.185 403.432 994.337 402.256C995.513 401.056 996.101 399.196 996.101 396.676V380.836H998.621V396.64C998.621 399.832 997.769 402.232 996.065 403.84C994.385 405.448 992.189 406.252 989.477 406.252C986.765 406.252 984.557 405.448 982.853 403.84C981.173 402.232 980.333 399.832 980.333 396.64V380.836H982.853ZM1023.21 406H1020.69L1006.76 384.832V406H1004.24V380.836H1006.76L1020.69 401.968V380.836H1023.21V406ZM1043.5 400.024H1032.05L1029.86 406H1027.19L1036.37 381.16H1039.22L1048.36 406H1045.7L1043.5 400.024ZM1042.75 397.936L1037.78 384.328L1032.81 397.936H1042.75Z" fill="black"/>
<path d="M946.367 722.004C947.783 722.268 948.983 722.988 949.967 724.164C950.951 725.34 951.443 726.708 951.443 728.268C951.443 729.54 951.119 730.692 950.471 731.724C949.847 732.732 948.923 733.536 947.699 734.136C946.475 734.712 945.011 735 943.307 735H934.595V709.836H943.055C945.599 709.836 947.531 710.424 948.851 711.6C950.195 712.776 950.867 714.3 950.867 716.172C950.867 717.732 950.447 719.004 949.607 719.988C948.767 720.948 947.687 721.62 946.367 722.004ZM937.115 720.96H942.983C944.687 720.96 945.995 720.564 946.907 719.772C947.843 718.956 948.311 717.84 948.311 716.424C948.311 715.032 947.843 713.94 946.907 713.148C945.995 712.356 944.651 711.96 942.875 711.96H937.115V720.96ZM943.127 732.876C944.951 732.876 946.367 732.444 947.375 731.58C948.407 730.716 948.923 729.528 948.923 728.016C948.923 726.504 948.383 725.304 947.303 724.416C946.247 723.504 944.819 723.048 943.019 723.048H937.115V732.876H943.127ZM958.595 711.888V721.284H968.135V723.372H958.595V732.912H969.215V735H956.075V709.8H969.215V711.888H958.595ZM981.633 709.836C984.417 709.836 986.805 710.34 988.797 711.348C990.789 712.356 992.313 713.808 993.369 715.704C994.425 717.6 994.953 719.856 994.953 722.472C994.953 725.064 994.425 727.308 993.369 729.204C992.313 731.076 990.789 732.516 988.797 733.524C986.805 734.508 984.417 735 981.633 735H974.181V709.836H981.633ZM981.633 732.912C985.137 732.912 987.801 732 989.625 730.176C991.473 728.328 992.397 725.76 992.397 722.472C992.397 719.16 991.473 716.58 989.625 714.732C987.801 712.86 985.137 711.924 981.633 711.924H976.701V732.912H981.633ZM1012.99 735L1006.76 724.488H1002.12V735H999.599V709.836H1007.16C1009.97 709.836 1012.09 710.508 1013.53 711.852C1014.99 713.196 1015.73 714.96 1015.73 717.144C1015.73 718.968 1015.2 720.528 1014.14 721.824C1013.11 723.096 1011.57 723.924 1009.53 724.308L1016.01 735H1012.99ZM1002.12 722.436H1007.19C1009.16 722.436 1010.64 721.956 1011.62 720.996C1012.63 720.036 1013.13 718.752 1013.13 717.144C1013.13 715.488 1012.65 714.216 1011.69 713.328C1010.73 712.416 1009.22 711.96 1007.16 711.96H1002.12V722.436ZM1032.03 735.252C1029.7 735.252 1027.59 734.712 1025.7 733.632C1023.8 732.528 1022.3 731.004 1021.2 729.06C1020.12 727.092 1019.58 724.872 1019.58 722.4C1019.58 719.928 1020.12 717.72 1021.2 715.776C1022.3 713.808 1023.8 712.284 1025.7 711.204C1027.59 710.1 1029.7 709.548 1032.03 709.548C1034.38 709.548 1036.51 710.1 1038.4 711.204C1040.3 712.284 1041.79 713.808 1042.87 715.776C1043.95 717.72 1044.49 719.928 1044.49 722.4C1044.49 724.872 1043.95 727.092 1042.87 729.06C1041.79 731.004 1040.3 732.528 1038.4 733.632C1036.51 734.712 1034.38 735.252 1032.03 735.252ZM1032.03 733.056C1033.9 733.056 1035.58 732.624 1037.07 731.76C1038.56 730.896 1039.74 729.66 1040.6 728.052C1041.46 726.42 1041.9 724.536 1041.9 722.4C1041.9 720.264 1041.46 718.392 1040.6 716.784C1039.74 715.176 1038.56 713.94 1037.07 713.076C1035.58 712.212 1033.9 711.78 1032.03 711.78C1030.16 711.78 1028.48 712.212 1026.99 713.076C1025.5 713.94 1024.33 715.176 1023.46 716.784C1022.6 718.392 1022.17 720.264 1022.17 722.4C1022.17 724.536 1022.6 726.42 1023.46 728.052C1024.33 729.66 1025.5 730.896 1026.99 731.76C1028.48 732.624 1030.16 733.056 1032.03 733.056ZM1060.4 735.252C1058.07 735.252 1055.96 734.712 1054.07 733.632C1052.17 732.528 1050.67 731.004 1049.57 729.06C1048.49 727.092 1047.95 724.872 1047.95 722.4C1047.95 719.928 1048.49 717.72 1049.57 715.776C1050.67 713.808 1052.17 712.284 1054.07 711.204C1055.96 710.1 1058.07 709.548 1060.4 709.548C1062.75 709.548 1064.88 710.1 1066.77 711.204C1068.67 712.284 1070.16 713.808 1071.24 715.776C1072.32 717.72 1072.86 719.928 1072.86 722.4C1072.86 724.872 1072.32 727.092 1071.24 729.06C1070.16 731.004 1068.67 732.528 1066.77 733.632C1064.88 734.712 1062.75 735.252 1060.4 735.252ZM1060.4 733.056C1062.27 733.056 1063.95 732.624 1065.44 731.76C1066.93 730.896 1068.11 729.66 1068.97 728.052C1069.83 726.42 1070.27 724.536 1070.27 722.4C1070.27 720.264 1069.83 718.392 1068.97 716.784C1068.11 715.176 1066.93 713.94 1065.44 713.076C1063.95 712.212 1062.27 711.78 1060.4 711.78C1058.53 711.78 1056.85 712.212 1055.36 713.076C1053.87 713.94 1052.7 715.176 1051.83 716.784C1050.97 718.392 1050.54 720.264 1050.54 722.4C1050.54 724.536 1050.97 726.42 1051.83 728.052C1052.7 729.66 1053.87 730.896 1055.36 731.76C1056.85 732.624 1058.53 733.056 1060.4 733.056ZM1102.06 710.16V735H1099.54V715.164L1090.68 735H1088.85L1079.99 715.236V735H1077.47V710.16H1080.13L1089.75 731.688L1099.36 710.16H1102.06ZM1115.89 711.456V709.188H1122.01V735H1119.45V711.456H1115.89Z" fill="black"/>
<path d="M408.724 589.948H417.76V592H406.204V566.836H408.724V589.948ZM423.877 566.836V592H421.357V566.836H423.877ZM449.527 566.836L439.987 592H437.107L427.567 566.836H430.303L438.547 589.264L446.863 566.836H449.527ZM455.834 566.836V592H453.314V566.836H455.834ZM480.512 592H477.992L464.06 570.832V592H461.54V566.836H464.06L477.992 587.968V566.836H480.512V592ZM506.02 574.18C505.3 572.524 504.196 571.228 502.708 570.292C501.244 569.332 499.516 568.852 497.524 568.852C495.652 568.852 493.972 569.284 492.484 570.148C490.996 571.012 489.82 572.248 488.956 573.856C488.092 575.44 487.66 577.288 487.66 579.4C487.66 581.512 488.092 583.372 488.956 584.98C489.82 586.588 490.996 587.824 492.484 588.688C493.972 589.552 495.652 589.984 497.524 589.984C499.276 589.984 500.848 589.612 502.24 588.868C503.656 588.1 504.784 587.02 505.624 585.628C506.488 584.212 506.98 582.568 507.1 580.696H496.516V578.644H509.764V580.48C509.644 582.688 509.044 584.692 507.964 586.492C506.884 588.268 505.432 589.672 503.608 590.704C501.808 591.736 499.78 592.252 497.524 592.252C495.196 592.252 493.084 591.712 491.188 590.632C489.292 589.528 487.792 588.004 486.688 586.06C485.608 584.092 485.068 581.872 485.068 579.4C485.068 576.928 485.608 574.72 486.688 572.776C487.792 570.808 489.292 569.284 491.188 568.204C493.084 567.1 495.196 566.548 497.524 566.548C500.212 566.548 502.564 567.22 504.58 568.564C506.596 569.908 508.06 571.78 508.972 574.18H506.02ZM527.772 592L521.544 581.488H516.9V592H514.38V566.836H521.94C524.748 566.836 526.872 567.508 528.312 568.852C529.776 570.196 530.508 571.96 530.508 574.144C530.508 575.968 529.98 577.528 528.924 578.824C527.892 580.096 526.356 580.924 524.316 581.308L530.796 592H527.772ZM516.9 579.436H521.976C523.944 579.436 525.42 578.956 526.404 577.996C527.412 577.036 527.916 575.752 527.916 574.144C527.916 572.488 527.436 571.216 526.476 570.328C525.516 569.416 524.004 568.96 521.94 568.96H516.9V579.436ZM546.813 592.252C544.485 592.252 542.373 591.712 540.477 590.632C538.581 589.528 537.081 588.004 535.977 586.06C534.897 584.092 534.357 581.872 534.357 579.4C534.357 576.928 534.897 574.72 535.977 572.776C537.081 570.808 538.581 569.284 540.477 568.204C542.373 567.1 544.485 566.548 546.813 566.548C549.165 566.548 551.289 567.1 553.185 568.204C555.081 569.284 556.569 570.808 557.649 572.776C558.729 574.72 559.269 576.928 559.269 579.4C559.269 581.872 558.729 584.092 557.649 586.06C556.569 588.004 555.081 589.528 553.185 590.632C551.289 591.712 549.165 592.252 546.813 592.252ZM546.813 590.056C548.685 590.056 550.365 589.624 551.853 588.76C553.341 587.896 554.517 586.66 555.381 585.052C556.245 583.42 556.677 581.536 556.677 579.4C556.677 577.264 556.245 575.392 555.381 573.784C554.517 572.176 553.341 570.94 551.853 570.076C550.365 569.212 548.685 568.78 546.813 568.78C544.941 568.78 543.261 569.212 541.773 570.076C540.285 570.94 539.109 572.176 538.245 573.784C537.381 575.392 536.949 577.264 536.949 579.4C536.949 581.536 537.381 583.42 538.245 585.052C539.109 586.66 540.285 587.896 541.773 588.76C543.261 589.624 544.941 590.056 546.813 590.056ZM575.184 592.252C572.856 592.252 570.744 591.712 568.848 590.632C566.952 589.528 565.452 588.004 564.348 586.06C563.268 584.092 562.728 581.872 562.728 579.4C562.728 576.928 563.268 574.72 564.348 572.776C565.452 570.808 566.952 569.284 568.848 568.204C570.744 567.1 572.856 566.548 575.184 566.548C577.536 566.548 579.66 567.1 581.556 568.204C583.452 569.284 584.94 570.808 586.02 572.776C587.1 574.72 587.64 576.928 587.64 579.4C587.64 581.872 587.1 584.092 586.02 586.06C584.94 588.004 583.452 589.528 581.556 590.632C579.66 591.712 577.536 592.252 575.184 592.252ZM575.184 590.056C577.056 590.056 578.736 589.624 580.224 588.76C581.712 587.896 582.888 586.66 583.752 585.052C584.616 583.42 585.048 581.536 585.048 579.4C585.048 577.264 584.616 575.392 583.752 573.784C582.888 572.176 581.712 570.94 580.224 570.076C578.736 569.212 577.056 568.78 575.184 568.78C573.312 568.78 571.632 569.212 570.144 570.076C568.656 570.94 567.48 572.176 566.616 573.784C565.752 575.392 565.32 577.264 565.32 579.4C565.32 581.536 565.752 583.42 566.616 585.052C567.48 586.66 568.656 587.896 570.144 588.76C571.632 589.624 573.312 590.056 575.184 590.056ZM616.839 567.16V592H614.319V572.164L605.463 592H603.627L594.771 572.236V592H592.251V567.16H594.915L604.527 588.688L614.139 567.16H616.839Z" fill="black"/>
<path d="M58.3219 754.004C59.7379 754.268 60.9379 754.988 61.9219 756.164C62.9059 757.34 63.3979 758.708 63.3979 760.268C63.3979 761.54 63.0739 762.692 62.4259 763.724C61.8019 764.732 60.8779 765.536 59.6539 766.136C58.4299 766.712 56.9659 767 55.2619 767H46.5499V741.836H55.0099C57.5539 741.836 59.4859 742.424 60.8059 743.6C62.1499 744.776 62.8219 746.3 62.8219 748.172C62.8219 749.732 62.4019 751.004 61.5619 751.988C60.7219 752.948 59.6419 753.62 58.3219 754.004ZM49.0699 752.96H54.9379C56.6419 752.96 57.9499 752.564 58.8619 751.772C59.7979 750.956 60.2659 749.84 60.2659 748.424C60.2659 747.032 59.7979 745.94 58.8619 745.148C57.9499 744.356 56.6059 743.96 54.8299 743.96H49.0699V752.96ZM55.0819 764.876C56.9059 764.876 58.3219 764.444 59.3299 763.58C60.3619 762.716 60.8779 761.528 60.8779 760.016C60.8779 758.504 60.3379 757.304 59.2579 756.416C58.2019 755.504 56.7739 755.048 54.9739 755.048H49.0699V764.876H55.0819ZM70.5504 743.888V753.284H80.0904V755.372H70.5504V764.912H81.1704V767H68.0304V741.8H81.1704V743.888H70.5504ZM93.5879 741.836C96.3719 741.836 98.7599 742.34 100.752 743.348C102.744 744.356 104.268 745.808 105.324 747.704C106.38 749.6 106.908 751.856 106.908 754.472C106.908 757.064 106.38 759.308 105.324 761.204C104.268 763.076 102.744 764.516 100.752 765.524C98.7599 766.508 96.3719 767 93.5879 767H86.1359V741.836H93.5879ZM93.5879 764.912C97.0919 764.912 99.7559 764 101.58 762.176C103.428 760.328 104.352 757.76 104.352 754.472C104.352 751.16 103.428 748.58 101.58 746.732C99.7559 744.86 97.0919 743.924 93.5879 743.924H88.6559V764.912H93.5879ZM124.946 767L118.718 756.488H114.074V767H111.554V741.836H119.114C121.922 741.836 124.046 742.508 125.486 743.852C126.95 745.196 127.682 746.96 127.682 749.144C127.682 750.968 127.154 752.528 126.098 753.824C125.066 755.096 123.53 755.924 121.49 756.308L127.97 767H124.946ZM114.074 754.436H119.15C121.118 754.436 122.594 753.956 123.578 752.996C124.586 752.036 125.09 750.752 125.09 749.144C125.09 747.488 124.61 746.216 123.65 745.328C122.69 744.416 121.178 743.96 119.114 743.96H114.074V754.436ZM143.987 767.252C141.659 767.252 139.547 766.712 137.651 765.632C135.755 764.528 134.255 763.004 133.151 761.06C132.071 759.092 131.531 756.872 131.531 754.4C131.531 751.928 132.071 749.72 133.151 747.776C134.255 745.808 135.755 744.284 137.651 743.204C139.547 742.1 141.659 741.548 143.987 741.548C146.339 741.548 148.463 742.1 150.359 743.204C152.255 744.284 153.743 745.808 154.823 747.776C155.903 749.72 156.443 751.928 156.443 754.4C156.443 756.872 155.903 759.092 154.823 761.06C153.743 763.004 152.255 764.528 150.359 765.632C148.463 766.712 146.339 767.252 143.987 767.252ZM143.987 765.056C145.859 765.056 147.539 764.624 149.027 763.76C150.515 762.896 151.691 761.66 152.555 760.052C153.419 758.42 153.851 756.536 153.851 754.4C153.851 752.264 153.419 750.392 152.555 748.784C151.691 747.176 150.515 745.94 149.027 745.076C147.539 744.212 145.859 743.78 143.987 743.78C142.115 743.78 140.435 744.212 138.947 745.076C137.459 745.94 136.283 747.176 135.419 748.784C134.555 750.392 134.123 752.264 134.123 754.4C134.123 756.536 134.555 758.42 135.419 760.052C136.283 761.66 137.459 762.896 138.947 763.76C140.435 764.624 142.115 765.056 143.987 765.056ZM172.358 767.252C170.03 767.252 167.918 766.712 166.022 765.632C164.126 764.528 162.626 763.004 161.522 761.06C160.442 759.092 159.902 756.872 159.902 754.4C159.902 751.928 160.442 749.72 161.522 747.776C162.626 745.808 164.126 744.284 166.022 743.204C167.918 742.1 170.03 741.548 172.358 741.548C174.71 741.548 176.834 742.1 178.73 743.204C180.626 744.284 182.114 745.808 183.194 747.776C184.274 749.72 184.814 751.928 184.814 754.4C184.814 756.872 184.274 759.092 183.194 761.06C182.114 763.004 180.626 764.528 178.73 765.632C176.834 766.712 174.71 767.252 172.358 767.252ZM172.358 765.056C174.23 765.056 175.91 764.624 177.398 763.76C178.886 762.896 180.062 761.66 180.926 760.052C181.79 758.42 182.222 756.536 182.222 754.4C182.222 752.264 181.79 750.392 180.926 748.784C180.062 747.176 178.886 745.94 177.398 745.076C175.91 744.212 174.23 743.78 172.358 743.78C170.486 743.78 168.806 744.212 167.318 745.076C165.83 745.94 164.654 747.176 163.79 748.784C162.926 750.392 162.494 752.264 162.494 754.4C162.494 756.536 162.926 758.42 163.79 760.052C164.654 761.66 165.83 762.896 167.318 763.76C168.806 764.624 170.486 765.056 172.358 765.056ZM214.013 742.16V767H211.493V747.164L202.637 767H200.801L191.945 747.236V767H189.425V742.16H192.089L201.701 763.688L211.313 742.16H214.013ZM228.565 765.02C232.981 761.708 236.389 758.744 238.789 756.128C241.213 753.488 242.425 750.908 242.425 748.388C242.425 746.732 242.005 745.412 241.165 744.428C240.349 743.42 239.005 742.916 237.133 742.916C235.309 742.916 233.893 743.492 232.885 744.644C231.901 745.772 231.349 747.284 231.229 749.18H228.781C228.925 746.516 229.741 744.452 231.229 742.988C232.741 741.5 234.709 740.756 237.133 740.756C239.461 740.756 241.345 741.416 242.785 742.736C244.225 744.032 244.945 745.88 244.945 748.28C244.945 751.184 243.733 754.004 241.309 756.74C238.909 759.452 235.945 762.104 232.417 764.696H245.737V766.82H228.565V765.02Z" fill="black"/>
<path d="M58.0934 268.004C59.5094 268.268 60.7094 268.988 61.6934 270.164C62.6774 271.34 63.1694 272.708 63.1694 274.268C63.1694 275.54 62.8454 276.692 62.1974 277.724C61.5734 278.732 60.6494 279.536 59.4254 280.136C58.2014 280.712 56.7374 281 55.0334 281H46.3214V255.836H54.7814C57.3254 255.836 59.2574 256.424 60.5774 257.6C61.9214 258.776 62.5934 260.3 62.5934 262.172C62.5934 263.732 62.1734 265.004 61.3334 265.988C60.4934 266.948 59.4134 267.62 58.0934 268.004ZM48.8414 266.96H54.7094C56.4134 266.96 57.7214 266.564 58.6334 265.772C59.5694 264.956 60.0374 263.84 60.0374 262.424C60.0374 261.032 59.5694 259.94 58.6334 259.148C57.7214 258.356 56.3774 257.96 54.6014 257.96H48.8414V266.96ZM54.8534 278.876C56.6774 278.876 58.0934 278.444 59.1014 277.58C60.1334 276.716 60.6494 275.528 60.6494 274.016C60.6494 272.504 60.1094 271.304 59.0294 270.416C57.9734 269.504 56.5454 269.048 54.7454 269.048H48.8414V278.876H54.8534ZM70.3219 257.888V267.284H79.8619V269.372H70.3219V278.912H80.9419V281H67.8019V255.8H80.9419V257.888H70.3219ZM93.3593 255.836C96.1433 255.836 98.5313 256.34 100.523 257.348C102.515 258.356 104.039 259.808 105.095 261.704C106.151 263.6 106.679 265.856 106.679 268.472C106.679 271.064 106.151 273.308 105.095 275.204C104.039 277.076 102.515 278.516 100.523 279.524C98.5313 280.508 96.1433 281 93.3593 281H85.9073V255.836H93.3593ZM93.3593 278.912C96.8633 278.912 99.5273 278 101.351 276.176C103.199 274.328 104.123 271.76 104.123 268.472C104.123 265.16 103.199 262.58 101.351 260.732C99.5273 258.86 96.8633 257.924 93.3593 257.924H88.4273V278.912H93.3593ZM124.717 281L118.489 270.488H113.845V281H111.325V255.836H118.885C121.693 255.836 123.817 256.508 125.257 257.852C126.721 259.196 127.453 260.96 127.453 263.144C127.453 264.968 126.925 266.528 125.869 267.824C124.837 269.096 123.301 269.924 121.261 270.308L127.741 281H124.717ZM113.845 268.436H118.921C120.889 268.436 122.365 267.956 123.349 266.996C124.357 266.036 124.861 264.752 124.861 263.144C124.861 261.488 124.381 260.216 123.421 259.328C122.461 258.416 120.949 257.96 118.885 257.96H113.845V268.436ZM143.758 281.252C141.43 281.252 139.318 280.712 137.422 279.632C135.526 278.528 134.026 277.004 132.922 275.06C131.842 273.092 131.302 270.872 131.302 268.4C131.302 265.928 131.842 263.72 132.922 261.776C134.026 259.808 135.526 258.284 137.422 257.204C139.318 256.1 141.43 255.548 143.758 255.548C146.11 255.548 148.234 256.1 150.13 257.204C152.026 258.284 153.514 259.808 154.594 261.776C155.674 263.72 156.214 265.928 156.214 268.4C156.214 270.872 155.674 273.092 154.594 275.06C153.514 277.004 152.026 278.528 150.13 279.632C148.234 280.712 146.11 281.252 143.758 281.252ZM143.758 279.056C145.63 279.056 147.31 278.624 148.798 277.76C150.286 276.896 151.462 275.66 152.326 274.052C153.19 272.42 153.622 270.536 153.622 268.4C153.622 266.264 153.19 264.392 152.326 262.784C151.462 261.176 150.286 259.94 148.798 259.076C147.31 258.212 145.63 257.78 143.758 257.78C141.886 257.78 140.206 258.212 138.718 259.076C137.23 259.94 136.054 261.176 135.19 262.784C134.326 264.392 133.894 266.264 133.894 268.4C133.894 270.536 134.326 272.42 135.19 274.052C136.054 275.66 137.23 276.896 138.718 277.76C140.206 278.624 141.886 279.056 143.758 279.056ZM172.129 281.252C169.801 281.252 167.689 280.712 165.793 279.632C163.897 278.528 162.397 277.004 161.293 275.06C160.213 273.092 159.673 270.872 159.673 268.4C159.673 265.928 160.213 263.72 161.293 261.776C162.397 259.808 163.897 258.284 165.793 257.204C167.689 256.1 169.801 255.548 172.129 255.548C174.481 255.548 176.605 256.1 178.501 257.204C180.397 258.284 181.885 259.808 182.965 261.776C184.045 263.72 184.585 265.928 184.585 268.4C184.585 270.872 184.045 273.092 182.965 275.06C181.885 277.004 180.397 278.528 178.501 279.632C176.605 280.712 174.481 281.252 172.129 281.252ZM172.129 279.056C174.001 279.056 175.681 278.624 177.169 277.76C178.657 276.896 179.833 275.66 180.697 274.052C181.561 272.42 181.993 270.536 181.993 268.4C181.993 266.264 181.561 264.392 180.697 262.784C179.833 261.176 178.657 259.94 177.169 259.076C175.681 258.212 174.001 257.78 172.129 257.78C170.257 257.78 168.577 258.212 167.089 259.076C165.601 259.94 164.425 261.176 163.561 262.784C162.697 264.392 162.265 266.264 162.265 268.4C162.265 270.536 162.697 272.42 163.561 274.052C164.425 275.66 165.601 276.896 167.089 277.76C168.577 278.624 170.257 279.056 172.129 279.056ZM213.784 256.16V281H211.264V261.164L202.408 281H200.572L191.716 261.236V281H189.196V256.16H191.86L201.472 277.688L211.084 256.16H213.784ZM228.732 261.776C228.9 259.592 229.74 257.876 231.252 256.628C232.788 255.356 234.768 254.72 237.192 254.72C238.8 254.72 240.18 255.008 241.332 255.584C242.484 256.16 243.348 256.952 243.924 257.96C244.524 258.944 244.824 260.06 244.824 261.308C244.824 262.82 244.38 264.128 243.492 265.232C242.604 266.336 241.344 267.02 239.712 267.284V267.464C241.416 267.8 242.772 268.544 243.78 269.696C244.788 270.824 245.292 272.312 245.292 274.16C245.292 276.224 244.596 277.916 243.204 279.236C241.836 280.532 239.844 281.18 237.228 281.18C234.732 281.18 232.68 280.532 231.072 279.236C229.464 277.916 228.54 276.056 228.3 273.656H230.748C230.964 275.264 231.636 276.572 232.764 277.58C233.892 278.564 235.38 279.056 237.228 279.056C239.052 279.056 240.444 278.576 241.404 277.616C242.388 276.656 242.88 275.432 242.88 273.944C242.88 270.296 240.252 268.472 234.996 268.472H234.204V266.348H235.032C239.928 266.348 242.376 264.752 242.376 261.56C242.376 260.168 241.92 259.052 241.008 258.212C240.096 257.348 238.8 256.916 237.12 256.916C235.488 256.916 234.132 257.348 233.052 258.212C231.996 259.052 231.372 260.24 231.18 261.776H228.732Z" fill="black"/>
<path d="M445 194V101H430.5V194H445Z" fill="#C4C4C4"/>
<path d="M9 300.5V428M9 216V101H285M445 101H519.5H600.5H799M445 101V194M445 101H430.5M519.5 403.5H380H445V341M285 101H314H411.5H430.5M285 101V341M285 403.5V341M285 497.5V482.5L229.5 428M285 497.5V512.5L229.5 569.5M285 497.5H167.5M9 497.5H167.5M9 497.5V428M9 497.5V569.5M285 588.5V896H203M203 896H304.5V850.5V805M203 896H83H9V569.5M399 896H541.5H726.5H848M848 896H969.5H1089H1206V493.5M848 896V580M995.5 269H1052.5L1095 225.5M995.5 269V354M995.5 269H981.5M848 493.5V507L899 558.5M848 493.5V269H981.5M848 493.5H1020.5M981.5 269V185M809.5 101H799M799 101V167M1206 281V269M1206 269V101H1052.5V181M1206 269H1116.5M1206 354V493.5M1206 493.5H1095L1043 443.5M981.5 185V101H892L834.5 158M981.5 185H1052.5M167.5 497.5V428H124.5M167.5 497.5V569.5H124.5M9 428H59L102 382.5M9 569.5H59L102 614M445 341H361M445 341V194M285 341H298.5L342.5 300.5M445 194H430.5V101" stroke="black" stroke-width="5"/>
<path d="M463 840C463 856.569 449.569 870 433 870C416.431 870 403 856.569 403 840C403 823.431 416.431 810 433 810C449.569 810 463 823.431 463 840Z" fill="#3A3A3A"/>
<path d="M403.017 877.396L403.012 839.514L439.993 869.159L403.017 877.396Z" fill="#3A3A3A"/>
<path d="M420.841 840.4C420.841 837.928 421.381 835.72 422.461 833.776C423.541 831.808 425.017 830.284 426.889 829.204C428.761 828.1 430.849 827.548 433.153 827.548C435.961 827.548 438.361 828.22 440.353 829.564C442.369 830.884 443.833 832.756 444.745 835.18H441.793C441.073 833.476 439.969 832.144 438.481 831.184C437.017 830.224 435.241 829.744 433.153 829.744C431.305 829.744 429.637 830.176 428.149 831.04C426.685 831.904 425.533 833.152 424.693 834.784C423.853 836.392 423.433 838.264 423.433 840.4C423.433 842.536 423.853 844.408 424.693 846.016C425.533 847.624 426.685 848.86 428.149 849.724C429.637 850.588 431.305 851.02 433.153 851.02C435.241 851.02 437.017 850.552 438.481 849.616C439.969 848.656 441.073 847.336 441.793 845.656H444.745C443.833 848.056 442.369 849.916 440.353 851.236C438.337 852.556 435.937 853.216 433.153 853.216C430.849 853.216 428.761 852.676 426.889 851.596C425.017 850.492 423.541 848.968 422.461 847.024C421.381 845.08 420.841 842.872 420.841 840.4Z" fill="white"/>
<path d="M947.334 161.512C947.334 144.943 933.903 131.512 917.334 131.512C900.766 131.512 887.334 144.943 887.334 161.512C887.334 178.08 900.766 191.512 917.334 191.512C933.903 191.512 947.334 178.08 947.334 161.512Z" fill="#3A3A3A"/>
<path d="M887.351 124.116L887.346 161.998L924.327 132.353L887.351 124.116Z" fill="#3A3A3A"/>
<path d="M917.333 148.26C915.005 148.26 912.893 148.8 910.997 149.88C909.101 150.984 907.601 152.508 906.497 154.452C905.417 156.42 904.877 158.64 904.877 161.112C904.877 163.584 905.417 165.792 906.497 167.736C907.601 169.704 909.101 171.228 910.997 172.308C912.893 173.412 915.005 173.964 917.333 173.964C919.685 173.964 921.809 173.412 923.705 172.308C925.601 171.228 927.089 169.704 928.169 167.736C929.249 165.792 929.789 163.584 929.789 161.112C929.789 158.64 929.249 156.42 928.169 154.452C927.089 152.508 925.601 150.984 923.705 149.88C921.809 148.8 919.685 148.26 917.333 148.26ZM917.333 150.456C919.205 150.456 920.885 150.888 922.373 151.752C923.861 152.616 925.037 153.852 925.901 155.46C926.765 157.092 927.197 158.976 927.197 161.112C927.197 163.248 926.765 165.12 925.901 166.728C925.037 168.336 923.861 169.572 922.373 170.436C920.885 171.3 919.205 171.732 917.333 171.732C915.461 171.732 913.781 171.3 912.293 170.436C910.805 169.572 909.629 168.336 908.765 166.728C907.901 165.12 907.469 163.248 907.469 161.112C907.469 158.976 907.901 157.092 908.765 155.46C909.629 153.852 910.805 152.616 912.293 151.752C913.781 150.888 915.461 150.456 917.333 150.456Z" fill="white"/>
<circle cx="690" cy="579" r="40" fill="#3A3A3A"/>
<path d="M663.922 590.02C668.338 586.708 671.746 583.744 674.146 581.128C676.57 578.488 677.782 575.908 677.782 573.388C677.782 571.732 677.362 570.412 676.522 569.428C675.706 568.42 674.362 567.916 672.49 567.916C670.666 567.916 669.25 568.492 668.242 569.644C667.258 570.772 666.706 572.284 666.586 574.18H664.138C664.282 571.516 665.098 569.452 666.586 567.988C668.098 566.5 670.066 565.756 672.49 565.756C674.818 565.756 676.702 566.416 678.142 567.736C679.582 569.032 680.302 570.88 680.302 573.28C680.302 576.184 679.09 579.004 676.666 581.74C674.266 584.452 671.302 587.104 667.774 589.696H681.094V591.82H663.922V590.02ZM684.92 572.776C685.088 570.592 685.928 568.876 687.439 567.628C688.976 566.356 690.956 565.72 693.38 565.72C694.988 565.72 696.368 566.008 697.52 566.584C698.672 567.16 699.536 567.952 700.112 568.96C700.712 569.944 701.012 571.06 701.012 572.308C701.012 573.82 700.568 575.128 699.68 576.232C698.792 577.336 697.532 578.02 695.9 578.284V578.464C697.604 578.8 698.96 579.544 699.968 580.696C700.976 581.824 701.48 583.312 701.48 585.16C701.48 587.224 700.784 588.916 699.392 590.236C698.024 591.532 696.032 592.18 693.416 592.18C690.92 592.18 688.868 591.532 687.26 590.236C685.652 588.916 684.728 587.056 684.488 584.656H686.936C687.152 586.264 687.824 587.572 688.952 588.58C690.08 589.564 691.568 590.056 693.416 590.056C695.24 590.056 696.632 589.576 697.592 588.616C698.576 587.656 699.068 586.432 699.068 584.944C699.068 581.296 696.44 579.472 691.184 579.472H690.392V577.348H691.22C696.116 577.348 698.564 575.752 698.564 572.56C698.564 571.168 698.108 570.052 697.196 569.212C696.284 568.348 694.988 567.916 693.308 567.916C691.676 567.916 690.32 568.348 689.24 569.212C688.184 570.052 687.56 571.24 687.368 572.776H684.92ZM704.79 573.208C704.79 571.312 705.354 569.788 706.482 568.636C707.61 567.484 709.062 566.908 710.838 566.908C712.614 566.908 714.066 567.484 715.194 568.636C716.322 569.788 716.886 571.312 716.886 573.208C716.886 574.456 716.622 575.56 716.094 576.52C715.59 577.456 714.87 578.188 713.934 578.716C713.022 579.244 711.978 579.508 710.802 579.508C709.002 579.508 707.55 578.932 706.446 577.78C705.342 576.628 704.79 575.104 704.79 573.208ZM714.798 573.208C714.798 571.72 714.426 570.556 713.682 569.716C712.938 568.876 711.978 568.456 710.802 568.456C709.65 568.456 708.702 568.876 707.958 569.716C707.214 570.556 706.842 571.72 706.842 573.208C706.842 574.696 707.202 575.86 707.922 576.7C708.666 577.516 709.626 577.924 710.802 577.924C711.954 577.924 712.902 577.516 713.646 576.7C714.414 575.86 714.798 574.696 714.798 573.208Z" fill="white"/>
<path d="M99.5707 60.252C97.2427 60.252 95.1307 59.712 93.2347 58.632C91.3387 57.528 89.8387 56.004 88.7347 54.06C87.6547 52.092 87.1147 49.872 87.1147 47.4C87.1147 44.928 87.6547 42.72 88.7347 40.776C89.8387 38.808 91.3387 37.284 93.2347 36.204C95.1307 35.1 97.2427 34.548 99.5707 34.548C101.923 34.548 104.047 35.1 105.943 36.204C107.839 37.284 109.327 38.808 110.407 40.776C111.487 42.72 112.027 44.928 112.027 47.4C112.027 49.872 111.487 52.092 110.407 54.06C109.327 56.004 107.839 57.528 105.943 58.632C104.047 59.712 101.923 60.252 99.5707 60.252ZM99.5707 58.056C101.443 58.056 103.123 57.624 104.611 56.76C106.099 55.896 107.275 54.66 108.139 53.052C109.003 51.42 109.435 49.536 109.435 47.4C109.435 45.264 109.003 43.392 108.139 41.784C107.275 40.176 106.099 38.94 104.611 38.076C103.123 37.212 101.443 36.78 99.5707 36.78C97.6987 36.78 96.0187 37.212 94.5307 38.076C93.0427 38.94 91.8667 40.176 91.0027 41.784C90.1387 43.392 89.7067 45.264 89.7067 47.4C89.7067 49.536 90.1387 51.42 91.0027 53.052C91.8667 54.66 93.0427 55.896 94.5307 56.76C96.0187 57.624 97.6987 58.056 99.5707 58.056ZM119.05 34.836V50.676C119.05 53.172 119.638 55.02 120.814 56.22C122.014 57.42 123.646 58.02 125.71 58.02C127.774 58.02 129.382 57.432 130.534 56.256C131.71 55.056 132.298 53.196 132.298 50.676V34.836H134.818V50.64C134.818 53.832 133.966 56.232 132.262 57.84C130.582 59.448 128.386 60.252 125.674 60.252C122.962 60.252 120.754 59.448 119.05 57.84C117.37 56.232 116.53 53.832 116.53 50.64V34.836H119.05ZM155.163 34.836V36.924H148.179V60H145.659V36.924H138.639V34.836H155.163ZM166.774 60.252C165.118 60.252 163.654 59.964 162.382 59.388C161.134 58.812 160.15 58.008 159.43 56.976C158.71 55.944 158.326 54.792 158.278 53.52H160.942C161.062 54.744 161.602 55.824 162.562 56.76C163.522 57.672 164.926 58.128 166.774 58.128C168.478 58.128 169.822 57.696 170.806 56.832C171.814 55.944 172.318 54.828 172.318 53.484C172.318 52.404 172.042 51.54 171.49 50.892C170.938 50.22 170.254 49.728 169.438 49.416C168.622 49.08 167.494 48.72 166.054 48.336C164.374 47.88 163.042 47.436 162.058 47.004C161.074 46.572 160.234 45.9 159.538 44.988C158.842 44.076 158.494 42.84 158.494 41.28C158.494 39.984 158.83 38.832 159.502 37.824C160.174 36.792 161.122 35.988 162.346 35.412C163.57 34.836 164.974 34.548 166.558 34.548C168.886 34.548 170.758 35.124 172.174 36.276C173.614 37.404 174.442 38.868 174.658 40.668H171.922C171.754 39.636 171.19 38.724 170.23 37.932C169.27 37.116 167.974 36.708 166.342 36.708C164.83 36.708 163.57 37.116 162.562 37.932C161.554 38.724 161.05 39.816 161.05 41.208C161.05 42.264 161.326 43.116 161.878 43.764C162.43 44.412 163.114 44.904 163.93 45.24C164.77 45.576 165.898 45.936 167.314 46.32C168.946 46.776 170.266 47.232 171.274 47.688C172.282 48.12 173.134 48.792 173.83 49.704C174.526 50.616 174.874 51.84 174.874 53.376C174.874 54.552 174.562 55.668 173.938 56.724C173.314 57.78 172.39 58.632 171.166 59.28C169.942 59.928 168.478 60.252 166.774 60.252ZM182.263 34.836V60H179.743V34.836H182.263ZM195.422 34.836C198.206 34.836 200.594 35.34 202.586 36.348C204.578 37.356 206.102 38.808 207.158 40.704C208.214 42.6 208.742 44.856 208.742 47.472C208.742 50.064 208.214 52.308 207.158 54.204C206.102 56.076 204.578 57.516 202.586 58.524C200.594 59.508 198.206 60 195.422 60H187.97V34.836H195.422ZM195.422 57.912C198.926 57.912 201.59 57 203.414 55.176C205.262 53.328 206.186 50.76 206.186 47.472C206.186 44.16 205.262 41.58 203.414 39.732C201.59 37.86 198.926 36.924 195.422 36.924H190.49V57.912H195.422ZM215.908 36.888V46.284H225.448V48.372H215.908V57.912H226.528V60H213.388V34.8H226.528V36.888H215.908Z" fill="black"/>
<circle cx="307" cy="47" r="40" fill="#3A3A3A"/>
<path d="M290.109 45.6V47.724H276.105V45.6H290.109ZM294.809 36.456V34.188H300.929V60H298.373V36.456H294.809ZM306.041 58.02C310.457 54.708 313.865 51.744 316.265 49.128C318.689 46.488 319.901 43.908 319.901 41.388C319.901 39.732 319.481 38.412 318.641 37.428C317.825 36.42 316.481 35.916 314.609 35.916C312.785 35.916 311.369 36.492 310.361 37.644C309.377 38.772 308.825 40.284 308.705 42.18H306.257C306.401 39.516 307.217 37.452 308.705 35.988C310.217 34.5 312.185 33.756 314.609 33.756C316.937 33.756 318.821 34.416 320.261 35.736C321.701 37.032 322.421 38.88 322.421 41.28C322.421 44.184 321.209 47.004 318.785 49.74C316.385 52.452 313.421 55.104 309.893 57.696H323.213V59.82H306.041V58.02ZM325.851 41.208C325.851 39.312 326.415 37.788 327.543 36.636C328.671 35.484 330.123 34.908 331.899 34.908C333.675 34.908 335.127 35.484 336.255 36.636C337.383 37.788 337.947 39.312 337.947 41.208C337.947 42.456 337.683 43.56 337.155 44.52C336.651 45.456 335.931 46.188 334.995 46.716C334.083 47.244 333.039 47.508 331.863 47.508C330.063 47.508 328.611 46.932 327.507 45.78C326.403 44.628 325.851 43.104 325.851 41.208ZM335.859 41.208C335.859 39.72 335.487 38.556 334.743 37.716C333.999 36.876 333.039 36.456 331.863 36.456C330.711 36.456 329.763 36.876 329.019 37.716C328.275 38.556 327.903 39.72 327.903 41.208C327.903 42.696 328.263 43.86 328.983 44.7C329.727 45.516 330.687 45.924 331.863 45.924C333.015 45.924 333.963 45.516 334.707 44.7C335.475 43.86 335.859 42.696 335.859 41.208Z" fill="white"/>
<circle cx="1110" cy="393" r="40" fill="#3A3A3A"/>
<path d="M1086.26 399.124C1086.53 400.684 1087.13 401.884 1088.06 402.724C1089 403.564 1090.28 403.984 1091.91 403.984C1094.17 403.984 1095.84 403.108 1096.92 401.356C1098.02 399.58 1098.53 396.652 1098.43 392.572C1097.97 393.892 1097.1 394.936 1095.8 395.704C1094.53 396.448 1093.07 396.82 1091.41 396.82C1088.89 396.82 1086.86 396.064 1085.33 394.552C1083.81 393.04 1083.06 390.94 1083.06 388.252C1083.06 386.644 1083.37 385.192 1083.99 383.896C1084.62 382.6 1085.57 381.58 1086.84 380.836C1088.11 380.092 1089.67 379.72 1091.52 379.72C1094.93 379.72 1097.3 380.836 1098.65 383.068C1099.99 385.276 1100.66 388.456 1100.66 392.608C1100.66 397.096 1099.99 400.468 1098.65 402.724C1097.33 404.98 1095.05 406.108 1091.81 406.108C1089.43 406.108 1087.58 405.472 1086.26 404.2C1084.94 402.904 1084.16 401.212 1083.92 399.124H1086.26ZM1091.81 394.66C1092.93 394.66 1093.97 394.432 1094.9 393.976C1095.86 393.496 1096.63 392.8 1097.21 391.888C1097.78 390.976 1098.07 389.884 1098.07 388.612C1098.07 386.644 1097.51 385.024 1096.38 383.752C1095.27 382.48 1093.68 381.844 1091.59 381.844C1089.74 381.844 1088.25 382.42 1087.13 383.572C1086.02 384.724 1085.47 386.26 1085.47 388.18C1085.47 390.196 1086.02 391.78 1087.13 392.932C1088.23 394.084 1089.79 394.66 1091.81 394.66ZM1105.41 392.86C1105.41 388.732 1106.05 385.528 1107.32 383.248C1108.59 380.968 1110.87 379.828 1114.16 379.828C1117.45 379.828 1119.73 380.968 1121 383.248C1122.27 385.528 1122.91 388.732 1122.91 392.86C1122.91 397.06 1122.27 400.312 1121 402.616C1119.73 404.92 1117.45 406.072 1114.16 406.072C1110.85 406.072 1108.56 404.92 1107.29 402.616C1106.04 400.312 1105.41 397.06 1105.41 392.86ZM1120.43 392.86C1120.43 390.628 1120.27 388.744 1119.96 387.208C1119.65 385.672 1119.03 384.436 1118.12 383.5C1117.21 382.564 1115.89 382.096 1114.16 382.096C1112.43 382.096 1111.11 382.564 1110.2 383.5C1109.29 384.436 1108.68 385.672 1108.37 387.208C1108.05 388.744 1107.9 390.628 1107.9 392.86C1107.9 395.164 1108.05 397.096 1108.37 398.656C1108.68 400.192 1109.29 401.428 1110.2 402.364C1111.11 403.3 1112.43 403.768 1114.16 403.768C1115.89 403.768 1117.21 403.3 1118.12 402.364C1119.03 401.428 1119.65 400.192 1119.96 398.656C1120.27 397.096 1120.43 395.164 1120.43 392.86ZM1126.3 387.208C1126.3 385.312 1126.87 383.788 1127.99 382.636C1129.12 381.484 1130.57 380.908 1132.35 380.908C1134.13 380.908 1135.58 381.484 1136.71 382.636C1137.83 383.788 1138.4 385.312 1138.4 387.208C1138.4 388.456 1138.13 389.56 1137.61 390.52C1137.1 391.456 1136.38 392.188 1135.45 392.716C1134.53 393.244 1133.49 393.508 1132.31 393.508C1130.51 393.508 1129.06 392.932 1127.96 391.78C1126.85 390.628 1126.3 389.104 1126.3 387.208ZM1136.31 387.208C1136.31 385.72 1135.94 384.556 1135.19 383.716C1134.45 382.876 1133.49 382.456 1132.31 382.456C1131.16 382.456 1130.21 382.876 1129.47 383.716C1128.73 384.556 1128.35 385.72 1128.35 387.208C1128.35 388.696 1128.71 389.86 1129.43 390.7C1130.18 391.516 1131.14 391.924 1132.31 391.924C1133.47 391.924 1134.41 391.516 1135.16 390.7C1135.93 389.86 1136.31 388.696 1136.31 387.208Z" fill="white"/>
</svg>
