<svg width="200" height="184" viewBox="0 0 200 184" fill="none" xmlns="http://www.w3.org/2000/svg">
<path d="M76.0417 153.75L46.125 183.667L34.375 171.917L64.2917 142L76.0417 153.75ZM85.4167 162.833C79.6583 162.833 75 167.5 75 173.25C75 179 79.6583 183.667 85.4167 183.667C91.175 183.667 95.8333 179 95.8333 173.25C95.8333 167.5 91.175 162.833 85.4167 162.833ZM200 98.0166C200 117.7 183.758 133.667 163.708 133.667H77.95C65.0333 133.667 53.7667 126.983 47.3333 117H36.2833C16.2417 117 0 101.033 0 81.35C0 63.8416 12.875 49.3 29.8167 46.3C31.2167 20.6916 52.7333 0.333313 79.1667 0.333313C94.1417 0.333313 107.525 6.87498 116.583 17.2C144.917 14.8166 168.7 36.0166 170.183 62.9666C187.125 65.9583 200 80.5083 200 98.0166ZM71.4833 62.9666C72.45 45.25 83.0583 30.05 98.25 22.3666C93.45 19.0833 87.225 17 79.1667 17C46.875 17 45.3167 49.1166 45.7333 60.4083C34.2 59.7083 16.6667 63.7 16.6667 81.35C16.6667 91.8166 25.475 100.333 36.2833 100.333H41.9C40.675 80.6917 54.6333 65.95 71.4833 62.9666ZM183.333 98.0166C183.333 80.7166 166.842 76.2 154.267 77.0833C156.075 65.0916 152.258 33.6666 120.833 33.6666C88.5417 33.6666 86.9833 65.7833 87.4 77.075C75.8667 76.375 58.3333 80.3666 58.3333 98.0166C58.3333 108.483 67.1417 117 77.95 117H163.708C174.525 117 183.333 108.483 183.333 98.0166ZM106.25 142C100.492 142 95.8333 146.667 95.8333 152.417C95.8333 158.167 100.492 162.833 106.25 162.833C112.008 162.833 116.667 158.167 116.667 152.417C116.667 146.667 112.008 142 106.25 142ZM116.667 171.917L128.417 183.667L158.333 153.75L146.583 142L116.667 171.917ZM137.325 64.9333L125 72.275V58.6666H116.667V72.275L104.217 64.8083L100 72.0333L112.492 79.5L100 86.7083L104.475 93.9333L116.667 86.725V100.333H125V86.725L137.225 93.9666L141.667 86.7416L129.175 79.5L141.667 72.1666L137.325 64.9333Z" fill="black"/>
</svg>
